<svg width="26" height="26" viewBox="0 0 26 26" fill="none" xmlns="http://www.w3.org/2000/svg">
<path fill-rule="evenodd" clip-rule="evenodd" d="M1.30433 7.81701C0.666748 8.98181 0.666748 10.3869 0.666748 13.1971V15.0649C0.666748 19.8552 0.666748 22.2504 2.10544 23.7385C3.54413 25.2267 5.85967 25.2267 10.4907 25.2267H15.4027C20.0338 25.2267 22.3494 25.2267 23.7881 23.7385C25.2267 22.2504 25.2267 19.8552 25.2267 15.0649V13.1971C25.2267 10.3869 25.2267 8.98181 24.5892 7.81701C23.9516 6.65221 22.7868 5.9293 20.4572 4.48346L18.0012 2.9592C15.5386 1.43086 14.3073 0.666687 12.9467 0.666687C11.5862 0.666687 10.3549 1.43086 7.89234 2.9592L5.43634 4.48347C3.10672 5.9293 1.9419 6.65221 1.30433 7.81701ZM12.0257 20.3147C12.0257 20.8233 12.4381 21.2357 12.9467 21.2357C13.4554 21.2357 13.8677 20.8233 13.8677 20.3147V16.6307C13.8677 16.122 13.4554 15.7097 12.9467 15.7097C12.4381 15.7097 12.0257 16.122 12.0257 16.6307V20.3147Z" fill="white"/>
</svg>
