<svg width="23" height="23" viewBox="0 0 23 23" fill="none" xmlns="http://www.w3.org/2000/svg">
<path fill-rule="evenodd" clip-rule="evenodd" d="M11.0208 2.6355C6.38965 2.6355 2.63538 6.38978 2.63538 11.0209C2.63538 15.6521 6.38965 19.4063 11.0208 19.4063C15.6519 19.4063 19.4062 15.6521 19.4062 11.0209C19.4062 6.38978 15.6519 2.6355 11.0208 2.6355ZM1.19788 11.0209C1.19788 5.59587 5.59575 1.198 11.0208 1.198C16.4458 1.198 20.8437 5.59587 20.8437 11.0209C20.8437 13.4747 19.944 15.7184 18.4564 17.44L21.5915 20.5752C21.8722 20.8559 21.8722 21.311 21.5915 21.5916C21.3108 21.8723 20.8557 21.8723 20.5751 21.5916L17.4399 18.4565C15.7183 19.9441 13.4746 20.8438 11.0208 20.8438C5.59575 20.8438 1.19788 16.446 1.19788 11.0209Z" fill="#589A73"/>
</svg>
