<svg width="28" height="28" viewBox="0 0 28 28" fill="none" xmlns="http://www.w3.org/2000/svg">
<path d="M2.43148 3.20978C2.59177 2.75388 3.09128 2.51424 3.54717 2.67453L3.8988 2.79815C4.61809 3.05101 5.22899 3.26576 5.70976 3.50166C6.22383 3.7539 6.66465 4.06462 6.9962 4.5498C7.32517 5.03121 7.46099 5.55938 7.52368 6.13849C7.55174 6.39772 7.56654 6.68466 7.57435 7.00004H19.9856C21.9514 7.00004 23.7209 7.00004 24.2389 7.6733C24.7568 8.34657 24.5543 9.36102 24.1494 11.3899L23.5663 14.2188C23.1987 16.0025 23.0148 16.8943 22.3712 17.4188C21.7275 17.9434 20.8169 17.9434 18.9957 17.9434H12.809C9.55529 17.9434 7.92843 17.9434 6.91762 16.8772C5.90682 15.8111 5.83305 14.6785 5.83305 11.2467L5.83305 8.21141C5.83305 7.34814 5.83186 6.77039 5.78384 6.32682C5.73796 5.90291 5.65664 5.69125 5.55133 5.53715C5.4486 5.38681 5.29265 5.24631 4.93888 5.07273C4.56223 4.88792 4.05036 4.70644 3.27148 4.4326L2.96673 4.32546C2.51084 4.16518 2.2712 3.66567 2.43148 3.20978Z" fill="white"/>
<path d="M8.74996 21C9.71646 21 10.5 21.7835 10.5 22.75C10.5 23.7165 9.71646 24.5 8.74996 24.5C7.78346 24.5 6.99996 23.7165 6.99996 22.75C6.99996 21.7835 7.78346 21 8.74996 21Z" fill="white"/>
<path d="M19.25 21.0001C20.2165 21.0001 21 21.7836 21 22.7501C21 23.7166 20.2165 24.5001 19.25 24.5001C18.2835 24.5001 17.5 23.7166 17.5 22.7501C17.5 21.7836 18.2835 21.0001 19.25 21.0001Z" fill="white"/>
</svg>
