<svg width="26" height="26" viewBox="0 0 26 26" fill="none" xmlns="http://www.w3.org/2000/svg">
<path fill-rule="evenodd" clip-rule="evenodd" d="M19.7708 7.58325C19.7708 9.82691 17.9519 11.6458 15.7083 11.6458C13.4646 11.6458 11.6458 9.82691 11.6458 7.58325C11.6458 5.33959 13.4646 3.52075 15.7083 3.52075C17.9519 3.52075 19.7708 5.33959 19.7708 7.58325ZM15.7083 10.0208C17.0545 10.0208 18.1458 8.92945 18.1458 7.58325C18.1458 6.23706 17.0545 5.14575 15.7083 5.14575C14.3621 5.14575 13.2708 6.23706 13.2708 7.58325C13.2708 8.92945 14.3621 10.0208 15.7083 10.0208Z" fill="#589A73"/>
<path fill-rule="evenodd" clip-rule="evenodd" d="M6.22913 18.4166C6.22913 20.6602 8.04797 22.4791 10.2916 22.4791C12.5353 22.4791 14.3541 20.6602 14.3541 18.4166C14.3541 16.1729 12.5353 14.3541 10.2916 14.3541C8.04797 14.3541 6.22913 16.1729 6.22913 18.4166ZM10.2916 20.8541C8.94543 20.8541 7.85413 19.7628 7.85413 18.4166C7.85413 17.0704 8.94543 15.9791 10.2916 15.9791C11.6378 15.9791 12.7291 17.0704 12.7291 18.4166C12.7291 19.7628 11.6378 20.8541 10.2916 20.8541Z" fill="#589A73"/>
<path d="M15.4375 18.3717C15.4375 17.9229 15.8012 17.5592 16.25 17.5592H23.8333C24.282 17.5592 24.6458 17.9229 24.6458 18.3717C24.6458 18.8204 24.282 19.1842 23.8333 19.1842H16.25C15.8012 19.1842 15.4375 18.8204 15.4375 18.3717Z" fill="#589A73"/>
<path d="M9.74996 6.72582C10.1987 6.72582 10.5625 7.08958 10.5625 7.53832C10.5625 7.98705 10.1987 8.35082 9.74996 8.35082L2.16663 8.35082C1.71789 8.35082 1.35413 7.98705 1.35413 7.53832C1.35413 7.08958 1.71789 6.72582 2.16663 6.72582L9.74996 6.72582Z" fill="#589A73"/>
<path d="M1.35413 18.3717C1.35413 17.9229 1.7179 17.5592 2.16663 17.5592H4.33329C4.78202 17.5592 5.14579 17.9229 5.14579 18.3717C5.14579 18.8204 4.78202 19.1842 4.33329 19.1842H2.16663C1.7179 19.1842 1.35413 18.8204 1.35413 18.3717Z" fill="#589A73"/>
<path d="M23.8333 6.72582C24.282 6.72582 24.6458 7.08958 24.6458 7.53832C24.6458 7.98705 24.282 8.35082 23.8333 8.35082H21.6666C21.2179 8.35082 20.8541 7.98705 20.8541 7.53832C20.8541 7.08958 21.2179 6.72582 21.6666 6.72582H23.8333Z" fill="#589A73"/>
</svg>
