<svg width="32" height="32" viewBox="0 0 32 32" fill="none" xmlns="http://www.w3.org/2000/svg">
<path fill-rule="evenodd" clip-rule="evenodd" d="M19.0384 2.86967C18.5446 2.66669 17.9186 2.66669 16.6667 2.66669C15.4147 2.66669 14.7887 2.66669 14.2949 2.86967C13.6365 3.14033 13.1135 3.65946 12.8407 4.31286C12.7163 4.61114 12.6675 4.95802 12.6485 5.46401C12.6204 6.20759 12.2362 6.89588 11.5869 7.26793C10.9376 7.63997 10.1449 7.62607 9.48198 7.27836C9.03091 7.04175 8.70385 6.91018 8.38132 6.86804C7.67479 6.77573 6.96024 6.96574 6.39487 7.39629C5.97085 7.71919 5.65786 8.25722 5.03187 9.33326C4.40589 10.4093 4.09289 10.9473 4.02313 11.4732C3.93011 12.1744 4.12157 12.8836 4.5554 13.4447C4.75341 13.7008 5.0317 13.9161 5.46361 14.1854C6.09855 14.5813 6.5071 15.2558 6.50705 16.0001C6.50701 16.7442 6.09849 17.4186 5.4636 17.8145C5.03162 18.0839 4.7533 18.2992 4.55526 18.5553C4.12144 19.1164 3.92998 19.8255 4.023 20.5267C4.09276 21.0526 4.40575 21.5906 5.03174 22.6667C5.65773 23.7427 5.97072 24.2808 6.39474 24.6037C6.96011 25.0342 7.67466 25.2242 8.38119 25.1319C8.7037 25.0898 9.03074 24.9582 9.48177 24.7216C10.1447 24.3739 10.9375 24.36 11.5868 24.7321C12.2362 25.1041 12.6204 25.7925 12.6485 26.5361C12.6675 27.0421 12.7163 27.3889 12.8407 27.6872C13.1135 28.3406 13.6365 28.8597 14.2949 29.1304C14.7887 29.3334 15.4147 29.3334 16.6667 29.3334C17.9186 29.3334 18.5446 29.3334 19.0384 29.1304C19.6968 28.8597 20.2199 28.3406 20.4926 27.6872C20.6171 27.3889 20.6658 27.042 20.6849 26.536C20.7129 25.7924 21.0971 25.1041 21.7464 24.7321C22.3957 24.3599 23.1885 24.3738 23.8515 24.7216C24.3025 24.9581 24.6295 25.0897 24.952 25.1318C25.6585 25.2241 26.3731 25.0341 26.9385 24.6036C27.3625 24.2807 27.6755 23.7426 28.3015 22.6666C28.9275 21.5905 29.2404 21.0525 29.3102 20.5266C29.4032 19.8254 29.2118 19.1163 28.7779 18.5552C28.5799 18.2991 28.3016 18.0838 27.8697 17.8144C27.2347 17.4185 26.8262 16.7441 26.8263 15.9999C26.8263 15.2558 27.2348 14.5815 27.8697 14.1856C28.3017 13.9162 28.58 13.7009 28.7781 13.4448C29.2119 12.8837 29.4034 12.1745 29.3103 11.4733C29.2406 10.9474 28.9276 10.4094 28.3016 9.33335C27.6756 8.25731 27.3626 7.71928 26.9386 7.39638C26.3732 6.96583 25.6587 6.77582 24.9521 6.86813C24.6296 6.91027 24.3026 7.04183 23.8516 7.27842C23.1886 7.62614 22.3959 7.64004 21.7465 7.26797C21.0971 6.89589 20.7129 6.20757 20.6849 5.46394C20.6658 4.95799 20.6171 4.61113 20.4926 4.31286C20.2199 3.65946 19.6968 3.14033 19.0384 2.86967ZM16.6667 20C18.8926 20 20.6971 18.2092 20.6971 16C20.6971 13.7909 18.8926 12 16.6667 12C14.4407 12 12.6362 13.7909 12.6362 16C12.6362 18.2092 14.4407 20 16.6667 20Z" fill="white"/>
</svg>
