<svg width="32" height="32" viewBox="0 0 32 32" fill="none" xmlns="http://www.w3.org/2000/svg">
<path fill-rule="evenodd" clip-rule="evenodd" d="M11.0001 9.35128C11 9.34531 10.9999 9.33933 10.9999 9.33333V8C10.9999 5.23858 13.2385 3 15.9999 3C18.7613 3 20.9999 5.23858 20.9999 8V9.33333C20.9999 9.33933 20.9999 9.34531 20.9998 9.35128C22.7296 9.39967 23.7832 9.57857 24.59 10.24C25.6959 11.1466 26.0037 12.6859 26.6194 15.7644L27.4194 19.7644C28.3049 24.1916 28.7476 26.4052 27.5474 27.8693C26.3471 29.3333 24.0897 29.3333 19.5748 29.3333H12.425C7.91009 29.3333 5.65263 29.3333 4.4524 27.8693C3.25217 26.4052 3.6949 24.1916 4.58034 19.7644L5.38034 15.7644C5.99605 12.6859 6.3039 11.1466 7.40982 10.24C8.2166 9.57856 9.27023 9.39966 11.0001 9.35128ZM12.9999 8C12.9999 6.34315 14.3431 5 15.9999 5C17.6568 5 18.9999 6.34315 18.9999 8V9.33333C18.9999 9.33334 18.9999 9.33333 18.9999 9.33333C18.9258 9.33332 18.8507 9.33333 18.7748 9.33333H13.225C13.1491 9.33333 13.074 9.33333 12.9999 9.33335C12.9999 9.33334 12.9999 9.33335 12.9999 9.33335V8ZM16.0004 23C14.6958 23 13.5832 22.1666 13.1709 21.0001C12.9868 20.4794 12.4155 20.2064 11.8948 20.3905C11.3741 20.5745 11.1011 21.1459 11.2852 21.6666C11.9711 23.6072 13.8218 25 16.0004 25C18.179 25 20.0297 23.6072 20.7157 21.6666C20.8997 21.1459 20.6268 20.5745 20.1061 20.3905C19.5853 20.2064 19.014 20.4794 18.83 21.0001C18.4177 22.1666 17.3051 23 16.0004 23Z" fill="white"/>
</svg>
